<svg version="1.1" xmlns="http://www.w3.org/2000/svg" xmlns:xlink="http://www.w3.org/1999/xlink" xmlns:a="http://ns.adobe.com/AdobeSVGViewerExtensions/3.0/" x="0px" y="0px" viewBox="-50 -50 100 100" xml:space="preserve">
    <style type="text/css" >
        <![CDATA[
            .stroke{
                stroke-width: 3;
                stroke: #000;
            }
            .fill{ fill: #fff; }
            .no-fill{ fill: none; }
            
        ]]>
    </style>
	<path class="stroke no-fill" d="M11.6,35.05h23.25V11.8L11.6-11.45 M-34.95,11.8v23.25h23.3L11.6,11.8 M-11.65-11.45l23.25-23.3h23.25v23.3 M-11.65-34.75h-23.3v23.3l23.3,23.25"/>
	<path class="fill" d="M-29.15,11.65c0-1.6-0.566-2.967-1.7-4.1s-2.5-1.7-4.1-1.7s-2.967,0.566-4.1,1.7s-1.7,2.5-1.7,4.1s0.567,2.967,1.7,4.1s2.5,1.7,4.1,1.7s2.967-0.566,4.1-1.7S-29.15,13.25-29.15,11.65z"/>
	<path class="stroke no-fill" d="M-29.15,11.65c0-1.6-0.566-2.967-1.7-4.1s-2.5-1.7-4.1-1.7s-2.967,0.566-4.1,1.7s-1.7,2.5-1.7,4.1s0.567,2.967,1.7,4.1s2.5,1.7,4.1,1.7s2.967-0.566,4.1-1.7S-29.15,13.25-29.15,11.65z"/>
	<path class="fill" d="M-29.15,34.95c0-1.6-0.566-2.966-1.7-4.1s-2.5-1.7-4.1-1.7s-2.967,0.567-4.1,1.7s-1.7,2.5-1.7,4.1c0,1.6,0.567,2.967,1.7,4.1s2.5,1.7,4.1,1.7s2.967-0.567,4.1-1.7S-29.15,36.55-29.15,34.95z"/>
	<path class="stroke no-fill" d="M-29.15,34.95c0-1.6-0.566-2.966-1.7-4.1s-2.5-1.7-4.1-1.7s-2.967,0.567-4.1,1.7s-1.7,2.5-1.7,4.1c0,1.6,0.567,2.967,1.7,4.1s2.5,1.7,4.1,1.7s2.967-0.567,4.1-1.7S-29.15,36.55-29.15,34.95z"/>
	<path class="fill" d="M-29.15-11.6c0-1.6-0.566-2.967-1.7-4.1s-2.5-1.7-4.1-1.7s-2.967,0.566-4.1,1.7s-1.7,2.5-1.7,4.1c0,1.567,0.567,2.917,1.7,4.05s2.5,1.7,4.1,1.7s2.967-0.567,4.1-1.7S-29.15-10.033-29.15-11.6z"/>
	<path class="stroke no-fill" d="M-29.15-11.6c0-1.6-0.566-2.967-1.7-4.1s-2.5-1.7-4.1-1.7s-2.967,0.566-4.1,1.7s-1.7,2.5-1.7,4.1c0,1.567,0.567,2.917,1.7,4.05s2.5,1.7,4.1,1.7s2.967-0.567,4.1-1.7S-29.15-10.033-29.15-11.6z"/>
	<path class="fill" d="M-39.05-30.9c1.133,1.133,2.5,1.7,4.1,1.7s2.967-0.566,4.1-1.7s1.7-2.5,1.7-4.1s-0.566-2.967-1.7-4.1s-2.5-1.7-4.1-1.7s-2.967,0.567-4.1,1.7s-1.7,2.5-1.7,4.1S-40.183-32.033-39.05-30.9z"/>
	<path class="stroke no-fill" d="M-39.05-30.9c1.133,1.133,2.5,1.7,4.1,1.7s2.967-0.566,4.1-1.7s1.7-2.5,1.7-4.1s-0.566-2.967-1.7-4.1s-2.5-1.7-4.1-1.7s-2.967,0.567-4.1,1.7s-1.7,2.5-1.7,4.1S-40.183-32.033-39.05-30.9z"/>
	<path class="fill" d="M-5.8,11.65c0-1.6-0.567-2.967-1.7-4.1s-2.5-1.7-4.1-1.7c-1.6,0-2.967,0.566-4.1,1.7s-1.7,2.5-1.7,4.1s0.567,2.967,1.7,4.1s2.5,1.7,4.1,1.7c1.6,0,2.966-0.566,4.1-1.7S-5.8,13.25-5.8,11.65z"/>
	<path class="stroke no-fill" d="M-5.8,11.65c0-1.6-0.567-2.967-1.7-4.1s-2.5-1.7-4.1-1.7c-1.6,0-2.967,0.566-4.1,1.7s-1.7,2.5-1.7,4.1s0.567,2.967,1.7,4.1s2.5,1.7,4.1,1.7c1.6,0,2.966-0.566,4.1-1.7S-5.8,13.25-5.8,11.65z"/>
	<path class="fill" d="M-15.7,39.05c1.133,1.133,2.5,1.7,4.1,1.7c1.6,0,2.966-0.567,4.1-1.7s1.7-2.5,1.7-4.1c0-1.6-0.567-2.966-1.7-4.1s-2.5-1.7-4.1-1.7c-1.6,0-2.967,0.567-4.1,1.7s-1.7,2.5-1.7,4.1C-17.4,36.55-16.833,37.917-15.7,39.05z"/>
	<path class="stroke no-fill" d="M-15.7,39.05c1.133,1.133,2.5,1.7,4.1,1.7c1.6,0,2.966-0.567,4.1-1.7s1.7-2.5,1.7-4.1c0-1.6-0.567-2.966-1.7-4.1s-2.5-1.7-4.1-1.7c-1.6,0-2.967,0.567-4.1,1.7s-1.7,2.5-1.7,4.1C-17.4,36.55-16.833,37.917-15.7,39.05z"/>
	<path class="fill" d="M-15.7-7.55c1.133,1.133,2.5,1.7,4.1,1.7c1.6,0,2.966-0.567,4.1-1.7s1.7-2.483,1.7-4.05c0-1.6-0.567-2.967-1.7-4.1s-2.5-1.7-4.1-1.7c-1.6,0-2.967,0.566-4.1,1.7s-1.7,2.5-1.7,4.1C-17.4-10.033-16.833-8.684-15.7-7.55z"/>
	<path class="stroke no-fill" d="M-15.7-7.55c1.133,1.133,2.5,1.7,4.1,1.7c1.6,0,2.966-0.567,4.1-1.7s1.7-2.483,1.7-4.05c0-1.6-0.567-2.967-1.7-4.1s-2.5-1.7-4.1-1.7c-1.6,0-2.967,0.566-4.1,1.7s-1.7,2.5-1.7,4.1C-17.4-10.033-16.833-8.684-15.7-7.55z"/>
	<path class="fill" d="M-5.8-35c0-1.6-0.567-2.967-1.7-4.1s-2.5-1.7-4.1-1.7c-1.6,0-2.967,0.567-4.1,1.7s-1.7,2.5-1.7,4.1s0.567,2.967,1.7,4.1s2.5,1.7,4.1,1.7c1.6,0,2.966-0.566,4.1-1.7S-5.8-33.4-5.8-35z"/>
	<path class="stroke no-fill" d="M-5.8-35c0-1.6-0.567-2.967-1.7-4.1s-2.5-1.7-4.1-1.7c-1.6,0-2.967,0.567-4.1,1.7s-1.7,2.5-1.7,4.1s0.567,2.967,1.7,4.1s2.5,1.7,4.1,1.7c1.6,0,2.966-0.566,4.1-1.7S-5.8-33.4-5.8-35z"/>
	<path class="fill" d="M11.65,17.45c1.6,0,2.966-0.566,4.1-1.7s1.7-2.5,1.7-4.1s-0.567-2.967-1.7-4.1s-2.5-1.7-4.1-1.7c-1.6,0-2.967,0.566-4.1,1.7s-1.7,2.5-1.7,4.1s0.567,2.967,1.7,4.1S10.05,17.45,11.65,17.45z"/>
	<path class="stroke no-fill" d="M11.65,17.45c1.6,0,2.966-0.566,4.1-1.7s1.7-2.5,1.7-4.1s-0.567-2.967-1.7-4.1s-2.5-1.7-4.1-1.7c-1.6,0-2.967,0.566-4.1,1.7s-1.7,2.5-1.7,4.1s0.567,2.967,1.7,4.1S10.05,17.45,11.65,17.45z"/>
	<path class="fill" d="M11.65,40.75c1.6,0,2.966-0.567,4.1-1.7s1.7-2.5,1.7-4.1c0-1.6-0.567-2.966-1.7-4.1s-2.5-1.7-4.1-1.7c-1.6,0-2.967,0.567-4.1,1.7s-1.7,2.5-1.7,4.1c0,1.6,0.567,2.967,1.7,4.1S10.05,40.75,11.65,40.75z"/>
	<path class="stroke no-fill" d="M11.65,40.75c1.6,0,2.966-0.567,4.1-1.7s1.7-2.5,1.7-4.1c0-1.6-0.567-2.966-1.7-4.1s-2.5-1.7-4.1-1.7c-1.6,0-2.967,0.567-4.1,1.7s-1.7,2.5-1.7,4.1c0,1.6,0.567,2.967,1.7,4.1S10.05,40.75,11.65,40.75z"/>
	<path class="fill" d="M11.65-5.85c1.6,0,2.966-0.567,4.1-1.7s1.7-2.483,1.7-4.05c0-1.6-0.567-2.967-1.7-4.1s-2.5-1.7-4.1-1.7c-1.6,0-2.967,0.566-4.1,1.7s-1.7,2.5-1.7,4.1c0,1.567,0.567,2.917,1.7,4.05S10.05-5.85,11.65-5.85z"/>
	<path class="stroke no-fill" d="M11.65-5.85c1.6,0,2.966-0.567,4.1-1.7s1.7-2.483,1.7-4.05c0-1.6-0.567-2.967-1.7-4.1s-2.5-1.7-4.1-1.7c-1.6,0-2.967,0.566-4.1,1.7s-1.7,2.5-1.7,4.1c0,1.567,0.567,2.917,1.7,4.05S10.05-5.85,11.65-5.85z"/>
	<path class="fill" d="M7.55-39.1c-1.133,1.133-1.7,2.5-1.7,4.1s0.567,2.967,1.7,4.1s2.5,1.7,4.1,1.7c1.6,0,2.966-0.566,4.1-1.7s1.7-2.5,1.7-4.1s-0.567-2.967-1.7-4.1s-2.5-1.7-4.1-1.7C10.05-40.8,8.684-40.233,7.55-39.1z"/>
	<path class="stroke no-fill" d="M7.55-39.1c-1.133,1.133-1.7,2.5-1.7,4.1s0.567,2.967,1.7,4.1s2.5,1.7,4.1,1.7c1.6,0,2.966-0.566,4.1-1.7s1.7-2.5,1.7-4.1s-0.567-2.967-1.7-4.1s-2.5-1.7-4.1-1.7C10.05-40.8,8.684-40.233,7.55-39.1z"/>
	<path class="fill" d="M39.05,15.75c1.133-1.133,1.7-2.5,1.7-4.1s-0.566-2.967-1.7-4.1s-2.5-1.7-4.1-1.7s-2.967,0.566-4.1,1.7s-1.7,2.5-1.7,4.1s0.566,2.967,1.7,4.1s2.5,1.7,4.1,1.7S37.917,16.883,39.05,15.75z"/>
	<path class="stroke no-fill" d="M39.05,15.75c1.133-1.133,1.7-2.5,1.7-4.1s-0.566-2.967-1.7-4.1s-2.5-1.7-4.1-1.7s-2.967,0.566-4.1,1.7s-1.7,2.5-1.7,4.1s0.566,2.967,1.7,4.1s2.5,1.7,4.1,1.7S37.917,16.883,39.05,15.75z"/>
	<path class="fill" d="M30.85,39.05c1.133,1.133,2.5,1.7,4.1,1.7s2.967-0.567,4.1-1.7s1.7-2.5,1.7-4.1c0-1.6-0.566-2.966-1.7-4.1s-2.5-1.7-4.1-1.7s-2.967,0.567-4.1,1.7s-1.7,2.5-1.7,4.1C29.15,36.55,29.717,37.917,30.85,39.05z"/>
	<path class="stroke no-fill" d="M30.85,39.05c1.133,1.133,2.5,1.7,4.1,1.7s2.967-0.567,4.1-1.7s1.7-2.5,1.7-4.1c0-1.6-0.566-2.966-1.7-4.1s-2.5-1.7-4.1-1.7s-2.967,0.567-4.1,1.7s-1.7,2.5-1.7,4.1C29.15,36.55,29.717,37.917,30.85,39.05z"/>
	<path class="fill" d="M30.85-7.55c1.133,1.133,2.5,1.7,4.1,1.7s2.967-0.567,4.1-1.7s1.7-2.483,1.7-4.05c0-1.6-0.566-2.967-1.7-4.1s-2.5-1.7-4.1-1.7s-2.967,0.566-4.1,1.7s-1.7,2.5-1.7,4.1C29.15-10.033,29.717-8.684,30.85-7.55z"/>
	<path class="stroke no-fill" d="M30.85-7.55c1.133,1.133,2.5,1.7,4.1,1.7s2.967-0.567,4.1-1.7s1.7-2.483,1.7-4.05c0-1.6-0.566-2.967-1.7-4.1s-2.5-1.7-4.1-1.7s-2.967,0.566-4.1,1.7s-1.7,2.5-1.7,4.1C29.15-10.033,29.717-8.684,30.85-7.55z"/>
	<path class="fill" d="M39.05-30.9c1.133-1.133,1.7-2.5,1.7-4.1s-0.566-2.967-1.7-4.1s-2.5-1.7-4.1-1.7s-2.967,0.567-4.1,1.7s-1.7,2.5-1.7,4.1s0.566,2.967,1.7,4.1s2.5,1.7,4.1,1.7S37.917-29.767,39.05-30.9z"/>
	<path class="stroke no-fill" d="M39.05-30.9c1.133-1.133,1.7-2.5,1.7-4.1s-0.566-2.967-1.7-4.1s-2.5-1.7-4.1-1.7s-2.967,0.567-4.1,1.7s-1.7,2.5-1.7,4.1s0.566,2.967,1.7,4.1s2.5,1.7,4.1,1.7S37.917-29.767,39.05-30.9z"/>
</svg>
