<?xml version="1.0" standalone="no"?>
<!DOCTYPE svg PUBLIC "-//W3C//DTD SVG 20010904//EN"
 "http://www.w3.org/TR/2001/REC-SVG-20010904/DTD/svg10.dtd">
<svg version="1.0" xmlns="http://www.w3.org/2000/svg"
 width="600.000000pt" height="600.000000pt" viewBox="0 0 600.000000 600.000000"
 preserveAspectRatio="xMidYMid meet">
<metadata>
Created by potrace 1.11, written by Peter Selinger 2001-2013
</metadata>
<g transform="translate(0.000000,600.000000) scale(0.100000,-0.100000)"
fill="#000000" stroke="none">
<path d="M478 5990 c-131 -23 -229 -79 -324 -183 -264 -288 -172 -742 184
-909 l62 -30 0 -257 0 -258 -39 -12 c-92 -27 -238 -159 -293 -266 -85 -164
-88 -359 -6 -525 46 -96 172 -219 269 -264 98 -45 179 -60 287 -53 245 16 456
190 517 427 24 92 17 262 -15 345 -61 159 -187 285 -342 344 l-28 11 0 252 0
253 68 32 c121 57 234 173 288 297 l28 66 252 0 252 0 42 -85 c63 -132 182
-242 319 -297 49 -20 73 -23 201 -23 134 0 150 2 205 26 l60 26 416 -414 416
-415 -23 -58 c-66 -161 -46 -376 46 -521 35 -54 131 -147 193 -186 116 -73
296 -102 427 -69 113 29 187 71 276 160 122 122 168 235 168 411 -1 160 -53
283 -169 400 -77 79 -156 124 -265 151 -95 24 -253 15 -341 -19 l-66 -25 -416
416 -417 417 27 65 c21 52 27 86 31 170 5 127 -8 196 -53 288 -66 132 -189
240 -326 289 -62 22 -91 27 -184 27 -131 1 -218 -22 -310 -82 -86 -55 -187
-168 -221 -247 l-28 -65 -257 0 -256 0 -36 73 c-67 135 -189 245 -324 292 -80
28 -217 40 -295 25z m173 -351 c160 -54 208 -263 87 -379 -114 -109 -288 -81
-360 59 -95 182 79 385 273 320z m1620 0 c159 -54 208 -263 87 -378 -73 -71
-166 -88 -253 -47 -86 39 -135 115 -135 205 0 160 151 270 301 220z m-1595
-1625 c146 -69 174 -276 52 -379 -47 -40 -89 -55 -150 -55 -139 1 -238 111
-225 251 7 75 40 128 104 170 40 25 57 29 116 29 43 0 82 -6 103 -16z m3262
-16 c77 -51 118 -162 93 -254 -14 -52 -74 -122 -125 -145 -53 -24 -139 -24
-192 0 -49 22 -111 92 -124 140 -30 107 18 223 112 270 64 32 178 27 236 -11z"/>
<path d="M3702 5989 c-210 -37 -401 -218 -453 -429 -20 -83 -16 -222 9 -306
48 -159 184 -305 345 -372 52 -21 82 -26 183 -30 137 -5 197 7 299 61 105 56
236 208 267 309 l11 38 253 0 252 0 42 -86 c56 -116 153 -214 263 -269 l77
-38 0 -253 0 -253 -77 -37 c-101 -48 -213 -158 -261 -257 -68 -138 -78 -300
-29 -446 l23 -70 -420 -419 -421 -419 -70 25 c-59 21 -88 25 -180 26 -179 0
-284 -43 -410 -169 -97 -96 -140 -177 -162 -305 -24 -136 6 -289 77 -401 35
-54 131 -147 193 -186 160 -101 375 -110 555 -22 73 36 186 137 232 209 94
147 112 361 43 524 l-25 59 415 415 414 414 41 -21 c115 -59 305 -66 436 -17
174 66 314 220 362 399 18 69 18 219 -1 292 -43 164 -191 331 -347 390 l-48
18 0 253 c0 166 4 254 10 254 32 0 151 73 213 130 86 79 128 144 163 246 23
71 26 89 22 194 -6 173 -46 263 -174 395 -62 64 -160 121 -249 146 -116 32
-301 12 -415 -46 -101 -51 -211 -168 -257 -272 l-27 -63 -256 0 -256 0 -33 70
c-64 134 -205 259 -340 300 -76 24 -214 33 -289 19z m204 -358 c52 -24 108
-90 124 -147 45 -160 -96 -317 -260 -289 -91 15 -172 100 -186 195 -27 175
159 315 322 241z m1620 -5 c82 -38 128 -110 127 -201 0 -73 -25 -128 -83 -177
-71 -61 -152 -73 -235 -34 -87 40 -135 115 -135 208 1 170 171 276 326 204z
m3 -1616 c115 -58 159 -196 100 -311 -81 -161 -323 -158 -404 4 -56 113 -14
250 93 307 51 27 159 27 211 0z m-1623 -1609 c49 -22 111 -92 124 -140 22 -80
5 -154 -48 -213 -48 -53 -102 -78 -172 -78 -184 0 -291 200 -188 352 61 89
185 124 284 79z"/>
<path d="M2050 4364 c-152 -40 -302 -161 -368 -297 -69 -140 -78 -302 -28
-449 l26 -73 -422 -416 -422 -416 -71 26 c-59 21 -88 25 -185 25 -98 0 -126
-4 -188 -26 -96 -34 -158 -76 -230 -153 -76 -81 -117 -154 -142 -251 -34 -132
-20 -268 41 -394 46 -94 180 -226 272 -265 l67 -29 0 -261 0 -260 -73 -34
c-95 -44 -217 -165 -265 -263 -73 -149 -80 -305 -22 -460 54 -144 193 -280
345 -338 73 -28 232 -38 316 -21 155 32 316 158 389 303 22 44 40 87 40 94 0
12 44 14 253 14 l252 -1 43 -90 c65 -137 182 -244 327 -299 73 -28 232 -38
316 -21 198 41 382 218 434 417 19 75 19 223 0 299 -46 174 -191 330 -366 392
-64 23 -90 27 -189 27 -98 0 -126 -4 -188 -26 -40 -14 -94 -40 -122 -58 -74
-48 -178 -163 -212 -236 l-30 -64 -261 1 -262 0 -32 67 c-57 118 -183 239
-292 278 l-51 18 0 261 0 261 51 18 c108 39 233 157 293 277 46 93 59 162 54
289 -4 85 -10 118 -33 175 l-28 69 418 411 419 411 55 -23 c177 -72 386 -51
539 54 114 78 204 203 237 333 24 92 17 262 -15 345 -68 178 -216 313 -396
360 -73 19 -221 18 -294 -1z m246 -350 c80 -38 129 -117 128 -209 -2 -176
-178 -279 -335 -197 -157 82 -158 319 -1 402 48 25 159 27 208 4z m-1645
-1605 c198 -67 205 -344 12 -426 -106 -44 -245 13 -294 121 -80 175 97 366
282 305z m0 -1620 c149 -50 204 -240 102 -358 -54 -64 -102 -84 -187 -79 -64
3 -77 7 -123 41 -63 46 -93 103 -93 175 0 159 152 270 301 221z m1620 0 c149
-50 204 -240 102 -358 -54 -64 -102 -84 -188 -79 -84 4 -138 33 -180 97 -28
41 -41 118 -31 174 23 125 171 208 297 166z"/>
<path d="M2093 2760 c-116 -21 -198 -66 -296 -159 -72 -69 -122 -147 -153
-241 -26 -76 -26 -253 0 -330 60 -180 198 -321 374 -382 55 -19 88 -23 182
-23 102 0 124 3 194 29 l78 29 415 -415 415 -415 -19 -44 c-67 -150 -63 -351
9 -494 73 -144 240 -273 397 -306 84 -17 243 -7 316 21 136 52 262 164 319
283 19 40 37 80 40 90 5 16 26 17 253 17 l248 -1 42 -87 c23 -48 62 -110 87
-138 57 -65 163 -137 241 -166 73 -26 236 -36 316 -19 203 44 398 238 439 438
18 83 8 245 -18 318 -49 134 -163 260 -295 325 l-87 43 2 255 3 254 50 20
c154 61 298 225 340 388 23 90 17 252 -13 335 -62 168 -224 318 -397 366 -71
20 -235 17 -310 -5 -181 -54 -328 -198 -391 -386 -26 -76 -26 -253 0 -330 52
-155 161 -282 297 -348 l78 -37 0 -261 1 -260 -56 -23 c-112 -47 -230 -162
-286 -278 l-30 -63 -259 0 -259 0 -32 66 c-37 77 -136 188 -208 234 -145 93
-371 115 -519 49 l-45 -20 -422 422 -421 421 25 61 c31 75 42 238 22 330 -36
178 -191 351 -367 412 -81 28 -217 40 -300 25z m178 -351 c92 -31 153 -116
153 -213 -1 -176 -177 -281 -335 -198 -160 83 -157 316 3 396 57 28 122 34
179 15z m3249 -10 c56 -25 86 -53 113 -104 29 -54 28 -145 -1 -201 -85 -166
-324 -166 -407 -1 -95 191 101 394 295 306z m-1614 -1618 c22 -10 56 -37 76
-60 89 -104 71 -252 -41 -333 -43 -31 -51 -33 -131 -33 -77 0 -89 3 -128 29
-142 96 -129 314 22 391 61 31 142 33 202 6z m1625 -8 c95 -49 142 -147 119
-250 -14 -59 -49 -106 -109 -145 -42 -27 -52 -29 -122 -26 -62 2 -83 8 -117
31 -61 40 -93 93 -99 166 -17 185 162 307 328 224z"/>
</g>
</svg>
