<?xml version="1.0" standalone="no"?>
<!DOCTYPE svg PUBLIC "-//W3C//DTD SVG 20010904//EN"
 "http://www.w3.org/TR/2001/REC-SVG-20010904/DTD/svg10.dtd">
<svg version="1.0" xmlns="http://www.w3.org/2000/svg"
 width="500.000000pt" height="500.000000pt" viewBox="0 0 500.000000 500.000000"
 preserveAspectRatio="xMidYMid meet">
<metadata>
Created by potrace 1.11, written by Peter Selinger 2001-2013
</metadata>
<g transform="translate(0.000000,500.000000) scale(0.100000,-0.100000)"
fill="#000000" stroke="none">
<path d="M463 4865 c-78 -21 -130 -51 -191 -108 -95 -90 -142 -201 -142 -332
0 -178 102 -339 261 -412 l59 -27 0 -201 0 -201 -56 -23 c-65 -28 -163 -114
-201 -178 -86 -147 -83 -349 8 -486 229 -346 764 -230 830 179 31 192 -75 396
-249 478 l-62 30 0 201 0 202 66 33 c86 42 166 123 207 211 l32 69 200 0 201
0 29 -67 c91 -210 350 -315 572 -231 l56 20 328 -328 328 -329 -24 -70 c-112
-324 158 -650 495 -598 198 31 349 182 381 379 38 238 -122 468 -359 514 -78
16 -181 8 -249 -18 l-51 -19 -332 332 -332 332 16 31 c48 93 44 265 -9 377
-54 114 -182 216 -306 244 -56 13 -152 13 -208 0 -123 -28 -250 -129 -304
-241 l-28 -58 -207 1 -207 0 -29 62 c-88 185 -318 287 -523 232z"/>
<path d="M3023 4865 c-29 -8 -72 -24 -95 -36 -54 -28 -143 -112 -175 -167
-109 -185 -74 -427 83 -571 223 -205 588 -135 716 139 l33 70 202 0 201 0 7
-30 c10 -44 75 -140 127 -185 25 -23 71 -53 102 -68 l56 -28 0 -203 0 -204
-55 -27 c-167 -81 -264 -248 -252 -434 3 -48 12 -106 21 -131 l17 -44 -334
-334 -334 -334 -49 17 c-117 40 -273 27 -374 -32 -61 -36 -136 -108 -167 -161
-57 -96 -77 -232 -52 -341 50 -220 277 -375 501 -342 120 18 191 55 274 142
118 126 153 311 90 471 l-23 56 327 327 328 327 62 -21 c394 -137 747 250 571
626 -41 87 -125 168 -213 208 l-67 30 -1 200 0 200 70 33 c178 83 282 281 252
476 -42 269 -303 439 -567 370 -119 -30 -234 -123 -287 -231 l-31 -63 -206 1
-206 0 -29 62 c-88 186 -317 287 -523 232z"/>
<path d="M1748 3585 c-256 -70 -402 -350 -310 -592 l19 -51 -336 -335 -336
-334 -50 19 c-27 11 -84 22 -125 25 -262 19 -480 -187 -480 -452 0 -178 97
-332 258 -407 l62 -30 0 -203 0 -203 -62 -30 c-174 -82 -267 -243 -256 -441 7
-114 43 -196 123 -280 92 -96 196 -141 332 -141 178 0 339 105 410 267 l27 63
201 0 201 0 17 -48 c36 -100 148 -212 254 -252 80 -31 210 -38 289 -15 158 45
279 166 318 320 69 262 -101 523 -370 566 -190 31 -391 -72 -470 -240 l-29
-60 -210 0 -210 -1 -24 53 c-34 74 -128 168 -207 207 l-64 31 0 209 0 208 28
7 c44 11 118 63 171 121 115 125 146 287 89 458 l-19 60 329 329 329 329 59
-22 c335 -125 677 171 603 522 -35 167 -174 309 -340 347 -59 14 -164 12 -221
-4z"/>
<path d="M1755 2306 c-81 -20 -146 -57 -210 -121 -262 -261 -115 -708 251
-765 78 -12 175 -2 245 27 l41 16 329 -329 329 -329 -21 -55 c-12 -31 -23 -90
-26 -136 -9 -140 28 -245 123 -344 223 -234 613 -166 741 127 l27 63 203 0
c163 0 203 -3 203 -13 0 -35 65 -138 118 -189 94 -90 188 -128 319 -128 223 0
408 159 445 384 14 86 -2 189 -42 272 -40 81 -145 181 -223 213 l-57 23 0 204
c0 186 2 205 18 210 105 35 224 141 267 239 143 322 -103 672 -453 642 -37 -3
-92 -15 -122 -26 -110 -41 -219 -150 -260 -258 -27 -70 -37 -189 -21 -262 28
-129 124 -253 238 -307 l62 -29 0 -210 1 -210 -58 -25 c-73 -32 -169 -127
-206 -203 l-27 -57 -208 0 -208 0 -18 46 c-26 68 -133 177 -209 214 -113 54
-269 60 -371 15 l-30 -13 -336 335 -336 335 19 52 c61 160 19 346 -106 472
-114 114 -274 158 -431 120z"/>
</g>
</svg>
