<svg xmlns="http://www.w3.org/2000/svg" viewBox="-25 -25 50 50"><style>.stroke{stroke-width:5;stroke:#000}.fill{fill:#fff}.no-fill{fill:none}</style><path class="stroke no-fill" d="M11.6 35.05h23.25V11.8L11.6-11.45M-34.95 11.8v23.25h23.3L11.6 11.8m-23.25-23.25l23.25-23.3h23.25v23.3m-46.5-23.3h-23.3v23.3l23.3 23.25"/><path class="fill" d="M-29.15 11.65c0-1.6-.566-2.967-1.7-4.1s-2.5-1.7-4.1-1.7-2.967.566-4.1 1.7-1.7 2.5-1.7 4.1.567 2.967 1.7 4.1 2.5 1.7 4.1 1.7 2.967-.566 4.1-1.7 1.7-2.5 1.7-4.1z"/><path class="stroke no-fill" d="M-29.15 11.65c0-1.6-.566-2.967-1.7-4.1s-2.5-1.7-4.1-1.7-2.967.566-4.1 1.7-1.7 2.5-1.7 4.1.567 2.967 1.7 4.1 2.5 1.7 4.1 1.7 2.967-.566 4.1-1.7 1.7-2.5 1.7-4.1z"/><path class="fill" d="M-29.15 34.95c0-1.6-.566-2.966-1.7-4.1s-2.5-1.7-4.1-1.7-2.967.567-4.1 1.7-1.7 2.5-1.7 4.1c0 1.6.567 2.967 1.7 4.1s2.5 1.7 4.1 1.7 2.967-.567 4.1-1.7 1.7-2.5 1.7-4.1z"/><path class="stroke no-fill" d="M-29.15 34.95c0-1.6-.566-2.966-1.7-4.1s-2.5-1.7-4.1-1.7-2.967.567-4.1 1.7-1.7 2.5-1.7 4.1c0 1.6.567 2.967 1.7 4.1s2.5 1.7 4.1 1.7 2.967-.567 4.1-1.7 1.7-2.5 1.7-4.1z"/><path class="fill" d="M-29.15-11.6c0-1.6-.566-2.967-1.7-4.1s-2.5-1.7-4.1-1.7-2.967.566-4.1 1.7-1.7 2.5-1.7 4.1c0 1.567.567 2.917 1.7 4.05s2.5 1.7 4.1 1.7 2.967-.567 4.1-1.7 1.7-2.483 1.7-4.05z"/><path class="stroke no-fill" d="M-29.15-11.6c0-1.6-.566-2.967-1.7-4.1s-2.5-1.7-4.1-1.7-2.967.566-4.1 1.7-1.7 2.5-1.7 4.1c0 1.567.567 2.917 1.7 4.05s2.5 1.7 4.1 1.7 2.967-.567 4.1-1.7 1.7-2.483 1.7-4.05z"/><path class="fill" d="M-39.05-30.9c1.133 1.133 2.5 1.7 4.1 1.7s2.967-.566 4.1-1.7 1.7-2.5 1.7-4.1-.566-2.967-1.7-4.1-2.5-1.7-4.1-1.7-2.967.567-4.1 1.7-1.7 2.5-1.7 4.1.567 2.967 1.7 4.1z"/><path class="stroke no-fill" d="M-39.05-30.9c1.133 1.133 2.5 1.7 4.1 1.7s2.967-.566 4.1-1.7 1.7-2.5 1.7-4.1-.566-2.967-1.7-4.1-2.5-1.7-4.1-1.7-2.967.567-4.1 1.7-1.7 2.5-1.7 4.1.567 2.967 1.7 4.1z"/><path class="fill" d="M-5.8 11.65c0-1.6-.567-2.967-1.7-4.1s-2.5-1.7-4.1-1.7c-1.6 0-2.967.566-4.1 1.7s-1.7 2.5-1.7 4.1.567 2.967 1.7 4.1 2.5 1.7 4.1 1.7c1.6 0 2.966-.566 4.1-1.7s1.7-2.5 1.7-4.1z"/><path class="stroke no-fill" d="M-5.8 11.65c0-1.6-.567-2.967-1.7-4.1s-2.5-1.7-4.1-1.7c-1.6 0-2.967.566-4.1 1.7s-1.7 2.5-1.7 4.1.567 2.967 1.7 4.1 2.5 1.7 4.1 1.7c1.6 0 2.966-.566 4.1-1.7s1.7-2.5 1.7-4.1z"/><path class="fill" d="M-15.7 39.05c1.133 1.133 2.5 1.7 4.1 1.7 1.6 0 2.966-.567 4.1-1.7s1.7-2.5 1.7-4.1c0-1.6-.567-2.966-1.7-4.1s-2.5-1.7-4.1-1.7c-1.6 0-2.967.567-4.1 1.7s-1.7 2.5-1.7 4.1c0 1.6.567 2.967 1.7 4.1z"/><path class="stroke no-fill" d="M-15.7 39.05c1.133 1.133 2.5 1.7 4.1 1.7 1.6 0 2.966-.567 4.1-1.7s1.7-2.5 1.7-4.1c0-1.6-.567-2.966-1.7-4.1s-2.5-1.7-4.1-1.7c-1.6 0-2.967.567-4.1 1.7s-1.7 2.5-1.7 4.1c0 1.6.567 2.967 1.7 4.1z"/><path class="fill" d="M-15.7-7.55c1.133 1.133 2.5 1.7 4.1 1.7 1.6 0 2.966-.567 4.1-1.7s1.7-2.483 1.7-4.05c0-1.6-.567-2.967-1.7-4.1s-2.5-1.7-4.1-1.7c-1.6 0-2.967.566-4.1 1.7s-1.7 2.5-1.7 4.1c0 1.567.567 2.916 1.7 4.05z"/><path class="stroke no-fill" d="M-15.7-7.55c1.133 1.133 2.5 1.7 4.1 1.7 1.6 0 2.966-.567 4.1-1.7s1.7-2.483 1.7-4.05c0-1.6-.567-2.967-1.7-4.1s-2.5-1.7-4.1-1.7c-1.6 0-2.967.566-4.1 1.7s-1.7 2.5-1.7 4.1c0 1.567.567 2.916 1.7 4.05z"/><path class="fill" d="M-5.8-35c0-1.6-.567-2.967-1.7-4.1s-2.5-1.7-4.1-1.7c-1.6 0-2.967.567-4.1 1.7s-1.7 2.5-1.7 4.1.567 2.967 1.7 4.1 2.5 1.7 4.1 1.7c1.6 0 2.966-.566 4.1-1.7s1.7-2.5 1.7-4.1z"/><path class="stroke no-fill" d="M-5.8-35c0-1.6-.567-2.967-1.7-4.1s-2.5-1.7-4.1-1.7c-1.6 0-2.967.567-4.1 1.7s-1.7 2.5-1.7 4.1.567 2.967 1.7 4.1 2.5 1.7 4.1 1.7c1.6 0 2.966-.566 4.1-1.7s1.7-2.5 1.7-4.1z"/><path class="fill" d="M11.65 17.45c1.6 0 2.966-.566 4.1-1.7s1.7-2.5 1.7-4.1-.567-2.967-1.7-4.1-2.5-1.7-4.1-1.7c-1.6 0-2.967.566-4.1 1.7s-1.7 2.5-1.7 4.1.567 2.967 1.7 4.1 2.5 1.7 4.1 1.7z"/><path class="stroke no-fill" d="M11.65 17.45c1.6 0 2.966-.566 4.1-1.7s1.7-2.5 1.7-4.1-.567-2.967-1.7-4.1-2.5-1.7-4.1-1.7c-1.6 0-2.967.566-4.1 1.7s-1.7 2.5-1.7 4.1.567 2.967 1.7 4.1 2.5 1.7 4.1 1.7z"/><path class="fill" d="M11.65 40.75c1.6 0 2.966-.567 4.1-1.7s1.7-2.5 1.7-4.1c0-1.6-.567-2.966-1.7-4.1s-2.5-1.7-4.1-1.7c-1.6 0-2.967.567-4.1 1.7s-1.7 2.5-1.7 4.1c0 1.6.567 2.967 1.7 4.1s2.5 1.7 4.1 1.7z"/><path class="stroke no-fill" d="M11.65 40.75c1.6 0 2.966-.567 4.1-1.7s1.7-2.5 1.7-4.1c0-1.6-.567-2.966-1.7-4.1s-2.5-1.7-4.1-1.7c-1.6 0-2.967.567-4.1 1.7s-1.7 2.5-1.7 4.1c0 1.6.567 2.967 1.7 4.1s2.5 1.7 4.1 1.7z"/><path class="fill" d="M11.65-5.85c1.6 0 2.966-.567 4.1-1.7s1.7-2.483 1.7-4.05c0-1.6-.567-2.967-1.7-4.1s-2.5-1.7-4.1-1.7c-1.6 0-2.967.566-4.1 1.7s-1.7 2.5-1.7 4.1c0 1.567.567 2.917 1.7 4.05s2.5 1.7 4.1 1.7z"/><path class="stroke no-fill" d="M11.65-5.85c1.6 0 2.966-.567 4.1-1.7s1.7-2.483 1.7-4.05c0-1.6-.567-2.967-1.7-4.1s-2.5-1.7-4.1-1.7c-1.6 0-2.967.566-4.1 1.7s-1.7 2.5-1.7 4.1c0 1.567.567 2.917 1.7 4.05s2.5 1.7 4.1 1.7z"/><path class="fill" d="M7.55-39.1c-1.133 1.133-1.7 2.5-1.7 4.1s.567 2.967 1.7 4.1 2.5 1.7 4.1 1.7c1.6 0 2.966-.566 4.1-1.7s1.7-2.5 1.7-4.1-.567-2.967-1.7-4.1-2.5-1.7-4.1-1.7c-1.6 0-2.966.567-4.1 1.7z"/><path class="stroke no-fill" d="M7.55-39.1c-1.133 1.133-1.7 2.5-1.7 4.1s.567 2.967 1.7 4.1 2.5 1.7 4.1 1.7c1.6 0 2.966-.566 4.1-1.7s1.7-2.5 1.7-4.1-.567-2.967-1.7-4.1-2.5-1.7-4.1-1.7c-1.6 0-2.966.567-4.1 1.7z"/><path class="fill" d="M39.05 15.75c1.133-1.133 1.7-2.5 1.7-4.1s-.566-2.967-1.7-4.1-2.5-1.7-4.1-1.7-2.967.566-4.1 1.7-1.7 2.5-1.7 4.1.566 2.967 1.7 4.1 2.5 1.7 4.1 1.7 2.967-.567 4.1-1.7z"/><path class="stroke no-fill" d="M39.05 15.75c1.133-1.133 1.7-2.5 1.7-4.1s-.566-2.967-1.7-4.1-2.5-1.7-4.1-1.7-2.967.566-4.1 1.7-1.7 2.5-1.7 4.1.566 2.967 1.7 4.1 2.5 1.7 4.1 1.7 2.967-.567 4.1-1.7z"/><path class="fill" d="M30.85 39.05c1.133 1.133 2.5 1.7 4.1 1.7s2.967-.567 4.1-1.7 1.7-2.5 1.7-4.1c0-1.6-.566-2.966-1.7-4.1s-2.5-1.7-4.1-1.7-2.967.567-4.1 1.7-1.7 2.5-1.7 4.1c0 1.6.567 2.967 1.7 4.1z"/><path class="stroke no-fill" d="M30.85 39.05c1.133 1.133 2.5 1.7 4.1 1.7s2.967-.567 4.1-1.7 1.7-2.5 1.7-4.1c0-1.6-.566-2.966-1.7-4.1s-2.5-1.7-4.1-1.7-2.967.567-4.1 1.7-1.7 2.5-1.7 4.1c0 1.6.567 2.967 1.7 4.1z"/><path class="fill" d="M30.85-7.55c1.133 1.133 2.5 1.7 4.1 1.7s2.967-.567 4.1-1.7 1.7-2.483 1.7-4.05c0-1.6-.566-2.967-1.7-4.1s-2.5-1.7-4.1-1.7-2.967.566-4.1 1.7-1.7 2.5-1.7 4.1c0 1.567.567 2.916 1.7 4.05z"/><path class="stroke no-fill" d="M30.85-7.55c1.133 1.133 2.5 1.7 4.1 1.7s2.967-.567 4.1-1.7 1.7-2.483 1.7-4.05c0-1.6-.566-2.967-1.7-4.1s-2.5-1.7-4.1-1.7-2.967.566-4.1 1.7-1.7 2.5-1.7 4.1c0 1.567.567 2.916 1.7 4.05z"/><path class="fill" d="M39.05-30.9c1.133-1.133 1.7-2.5 1.7-4.1s-.566-2.967-1.7-4.1-2.5-1.7-4.1-1.7-2.967.567-4.1 1.7-1.7 2.5-1.7 4.1.566 2.967 1.7 4.1 2.5 1.7 4.1 1.7 2.967-.567 4.1-1.7z"/><path class="stroke no-fill" d="M39.05-30.9c1.133-1.133 1.7-2.5 1.7-4.1s-.566-2.967-1.7-4.1-2.5-1.7-4.1-1.7-2.967.567-4.1 1.7-1.7 2.5-1.7 4.1.566 2.967 1.7 4.1 2.5 1.7 4.1 1.7 2.967-.567 4.1-1.7z"/></svg>
