<svg xmlns="http://www.w3.org/2000/svg" viewBox="0 0 214.49 211.45"><defs><style>.a,.b{fill:none}.a,.b,.c{stroke:#000;stroke-miterlimit:10;stroke-width:5px}.b{stroke-linecap:round}.c{fill:#fff}</style></defs><title>prototype</title><path class="a" d="M185.09 36.54a102.9 102.9 0 0 1-2.78 141.76"/><path d="M187.36 147.59a1.88 1.88 0 0 1 1.44 2.23l-6 28 28-6.37a1.872 1.872 0 0 1 .83 3.65l-30.84 7a1.87 1.87 0 0 1-2.25-2.22l6.67-30.92a1.89 1.89 0 0 1 2.23-1.44z"/><path class="b" d="M43.67 26.32C59.53 12.37 78.92 5.47 99.53 2.88c32.68-2.74 65.4 9.38 85.52 33.66"/><path class="a" d="M32.9 175.37a102.92 102.92 0 0 1-2.57-135.9"/><path d="M27.53 70.69a1.88 1.88 0 0 1-1.6-2.12l3.95-28.41L2.46 48.6a1.88 1.88 0 0 1-1.1-3.59l30.23-9.3a1.89 1.89 0 0 1 1.77.36 1.87 1.87 0 0 1 .64 1.69l-4.35 31.33a1.88 1.88 0 0 1-.43.95 1.86 1.86 0 0 1-1.69.65z"/><path class="b" d="M171.65 187.71A102.89 102.89 0 0 1 32.9 175.37"/><path class="a" d="M125.03 169.97l-77-21v-77l77 21v77z"/><path class="a" d="M171.03 137.97l-77-21v-77l77 21v77zm-123 11l46-32m31-24l46-32m-46 109l46-32"/><path class="c" d="M48.03 71.97l46-32"/><circle class="c" cx="125.03" cy="169.97" r="8"/><circle class="c" cx="171.03" cy="137.97" r="8"/><circle class="c" cx="168.03" cy="62.97" r="8"/><circle class="c" cx="94.03" cy="40.97" r="8"/><circle class="c" cx="94.03" cy="117.97" r="8"/><circle class="c" cx="49.03" cy="149.97" r="8"/><circle class="c" cx="49.03" cy="72.97" r="8"/><circle class="c" cx="125.03" cy="92.97" r="8"/></svg>